<?xml version="1.0" encoding="utf-8"?>
<!-- Generator: Adobe Illustrator 25.0.0, SVG Export Plug-In . SVG Version: 6.00 Build 0)  -->
<svg version="1.1" id="Layer_1" xmlns="http://www.w3.org/2000/svg" xmlns:xlink="http://www.w3.org/1999/xlink" x="0px" y="0px"
	 viewBox="0 0 299.6 157.1" style="enable-background:new 0 0 299.6 157.1;" xml:space="preserve">
<style type="text/css">
	.st0{fill:#B6134D;}
	.st1{fill:#B0AA00;}
	.st2{fill:#FFFFFF;}
</style>
<g id="Group_1" transform="translate(-147.969 -342.215)">
	<path id="Path_13" class="st0" d="M398.8,388v36.1c0,0.9-0.3,1.7-0.9,2.3c-0.9,0.9-2.9,1.4-5,1.4c-3.7,0-5.4-2.2-5.4-4.5v-0.2
		c-3.1,3.3-7.4,5.2-11.9,5.1c-11.2,0-18.9-8.2-18.9-20.8c0-12.1,8.5-20.8,19.5-20.8c4.3-0.1,8.4,1.6,11.3,4.7
		c0.2-2.6,1.6-4.2,5.1-4.2h5.4C398.5,387.4,398.8,387.5,398.8,388 M378,396.5c-5.9,0-9.3,4.8-9.3,11.2s3.4,11.2,9.3,11.2
		s9.3-4.8,9.3-11.2C387.4,401.2,383.9,396.5,378,396.5 M446.8,407.5c0,12.3-8.7,20.8-19.7,20.8c-3.9,0-7.6-1.4-10.5-4v15.4
		c0,0.9-0.3,1.7-0.9,2.3c-0.9,0.9-2.6,1.4-5.1,1.4c-2.3,0-4.2-0.5-5.1-1.4c-0.6-0.6-1-1.5-0.9-2.3V388c0-0.5,0.2-0.6,0.6-0.6h5.4
		c3.7,0,5,1.6,5.1,4.3c3.2-3.1,7.5-4.9,11.9-5C438.7,386.7,446.8,394.7,446.8,407.5 M425.4,396.5c-5.9,0-9.3,4.8-9.3,11.2
		s3.4,11.2,9.3,11.2s9.3-4.8,9.3-11.2C434.7,401.2,431.3,396.5,425.4,396.5 M354.3,390.5c1.6,1.4,1.6,3.6,0.8,5.4s-2.2,3.1-3.6,3.1
		c-2.5,0-4.8-2-9.2-2c-6,0-10.1,4-10.1,10.7s4,10.7,9.6,10.7c4.3,0,7.4-2.2,9.8-2.2c1.1,0,2.5,0.3,3.6,2.6c1.4,3.1,0.6,5.1-1.6,6.4
		c-3.7,2.3-9.2,3.4-13.2,3.4c-11.6,0-20.2-7.6-20.2-20.5c0-12.6,8.8-21.1,21.4-21.1C345.5,386.7,351.5,387.8,354.3,390.5
		 M312.1,390.8c-2.8-2.6-7-4-11.5-4c-4.8,0-9.5,1.9-12.1,4.7c-0.2-2.6-1.6-4.2-5.1-4.2H278c-0.5,0-0.6,0.2-0.6,0.6v12.6
		c-3.1-32.9-30.9-58.2-64.5-58.2c-35.8,0-64.9,29.1-64.9,64.9c0,30.2,20.9,56.4,50.3,63.2c10.4,10.9,23.1,16.6,33.4,16.6
		c1.4,0,2.8-0.1,4.2-0.3c0.6-0.2,0.9-0.5,0.5-1.1c-3-4.9-4.6-10.4-4.7-16.1c25.2-7.6,43.3-29.7,45.8-55.8v10.5
		c0,0.8,0.3,1.7,0.8,2.3c0.9,0.9,2.6,1.4,5.1,1.4c2.3,0,4-0.5,5.1-1.4c0.6-0.6,1-1.5,0.9-2.3V405c0-2.9,0.5-4.8,2-6.2
		c3.3-2.9,8.2-2.9,11.5,0c1.4,1.4,2,3.4,2,6.2v19.1c0,0.9,0.3,1.7,0.9,2.3c0.9,0.9,2.6,1.4,5.1,1.4c2.3,0,4.2-0.5,5.1-1.4
		c0.6-0.6,0.9-1.5,0.8-2.3v-21.4C316.5,396.8,314.9,393.4,312.1,390.8"/>
	<path id="local" class="st1" d="M351.1,346c0-0.2,0-0.3,0.1-0.4c0.3-0.1,0.5-0.2,0.8-0.2c0.8-0.1,1.5-0.1,2.3-0.1h0.2
		c0.9,0,1.6,0,2.1,0.1c0.3,0,0.6,0.1,0.9,0.2c0.2,0.1,0.3,0.3,0.3,0.5c0.4,4.1,0.5,8.2,0.4,12.3v12.9c0,0.3,0.1,0.6,0.2,0.8
		c0.2,0.2,0.5,0.3,0.7,0.3h0.6c0.3,0,0.5,0.1,0.6,0.3c0.1,0.6,0.1,1.2,0.1,1.8v0.4c0,0.5,0,1.1-0.1,1.6c-0.1,0.3-0.3,0.5-0.5,0.6
		c-1,0.3-2,0.5-3.1,0.4c-1.4,0.1-2.8-0.4-3.9-1.3c-1.1-1.3-1.6-2.9-1.5-4.5v-14.2L351.1,346z M363.4,366.5c0-3.8,0.9-6.8,2.8-8.8
		c1.9-2.1,4.6-3.1,8.2-3.1c2.8-0.2,5.6,0.9,7.6,2.9c1.8,1.9,2.7,4.7,2.7,8.2c0,3.8-1,6.8-2.9,8.8c-1.9,2.1-4.6,3.1-8.2,3.1
		c-2.8,0.2-5.6-0.9-7.6-2.9C364.3,372.8,363.4,370,363.4,366.5z M370.3,366.2c0,3.9,1.2,5.9,3.5,5.9c2.7,0,4-2.1,4-6.2
		c0-3.9-1.2-5.9-3.5-5.9C371.7,360,370.3,362.1,370.3,366.2z M387.7,366.2c-0.2-3.2,1-6.3,3.1-8.7c2.2-2.1,5.1-3.1,8.1-3
		c2.6-0.1,5.1,0.7,7.2,2.3c0.2,0.1,0.3,0.3,0.3,0.6c0,0.1,0,0.1,0,0.2c-0.2,0.6-0.4,1.1-0.7,1.6l-0.4,0.8c-0.3,0.6-0.6,1.1-1.1,1.6
		c-0.2,0.2-0.5,0.1-0.8-0.1c-1.2-0.8-2.6-1.3-4.1-1.3c-1.3,0-2.5,0.5-3.3,1.5c-0.9,1.3-1.4,2.8-1.3,4.4c-0.1,1.6,0.3,3.2,1.2,4.5
		c0.8,1.1,2.2,1.7,3.5,1.6c1.4,0,2.9-0.3,4.1-1c0.4-0.3,0.8-0.3,1-0.1c0.4,0.5,0.7,1.1,0.9,1.7l0.2,0.6c0.2,0.5,0.4,1.1,0.5,1.6
		c0,0.3-0.1,0.6-0.3,0.7c-2.1,1.4-4.6,2-7.2,2c-3.2,0-5.7-0.8-7.5-2.5C388.8,372.9,387.7,370,387.7,366.2z M408.5,366.5
		c0-1.7,0.2-3.4,0.8-5.1c0.4-1.4,1.1-2.7,2.1-3.8c0.8-1,1.9-1.7,3.1-2.3c1.2-0.5,2.4-0.8,3.7-0.8c1,0,2,0.2,2.9,0.6
		c0.8,0.3,1.5,0.9,2.1,1.6l0.1-1c0-0.2,0.1-0.3,0.2-0.4c0.2-0.1,0.5-0.2,0.7-0.2c0.6-0.1,1.2-0.1,1.8-0.1h0.3c0.8,0,1.6,0,2.4,0.2
		c0.3,0.1,0.6,0.4,0.5,0.7c0,0.6,0,1.9,0,3.8s0,3.6,0,5v2.5c0,3,0.1,5.9,0.2,8.9c0,0.1,0,0.2,0,0.2c0,0.1,0,0.3-0.1,0.4
		c-0.1,0.1-0.3,0.2-0.7,0.3c-0.7,0.1-1.4,0.1-2.1,0.1h-0.2c-0.8,0-1.6,0-2.3-0.1c-0.3-0.1-0.6-0.3-0.7-0.6c-0.1-0.4-0.2-0.8-0.2-1.3
		c-0.6,0.8-1.3,1.4-2.2,1.8c-1,0.4-2,0.6-3,0.6c-2.6,0.1-5-1-6.6-3C409.4,372.6,408.5,369.9,408.5,366.5z M415.5,366.3
		c0,3.9,1.2,5.9,3.7,5.9c0.9,0.1,1.7-0.2,2.4-0.8c0.3-0.3,0.4-0.6,0.5-1c0.1-0.6,0.2-1.2,0.1-1.9v-7c-0.3-0.5-0.8-0.8-1.3-1.1
		c-0.5-0.3-1.1-0.4-1.7-0.4C416.8,360,415.5,362.1,415.5,366.3L415.5,366.3z M434.1,346c0-0.2,0-0.3,0.1-0.4
		c0.3-0.1,0.5-0.2,0.8-0.2c0.8-0.1,1.5-0.1,2.3-0.1h0.2c0.9,0,1.6,0,2.1,0.1c0.3,0,0.6,0.1,0.9,0.2c0.2,0.1,0.3,0.3,0.3,0.5
		c0.4,4.1,0.5,8.2,0.4,12.3v12.9c0,0.3,0.1,0.6,0.2,0.8c0.2,0.2,0.5,0.3,0.7,0.3h0.6c0.3,0,0.5,0.1,0.6,0.3c0.1,0.6,0.1,1.2,0.1,1.8
		v0.4c0,0.5,0,1.1-0.1,1.6c-0.1,0.3-0.3,0.5-0.5,0.6c-1,0.3-2,0.5-3.1,0.4c-1.4,0.1-2.8-0.4-3.9-1.3c-1.1-1.3-1.6-2.9-1.5-4.5v-14.2
		L434.1,346z"/>
	<path id="Liverpool_Sefton" class="st1" d="M244.7,493.5v-16c0-0.1,0-0.2,0.1-0.3c0.2-0.1,0.4-0.2,0.5-0.2c0.4,0,0.8-0.1,1.2-0.1
		h0.3c0.5,0,1,0,1.5,0.1c0.3,0.1,0.4,0.2,0.4,0.4V491h5.8c0.1,0,0.3,0,0.4,0.1c0.1,0.1,0.1,0.2,0.1,0.4c0,0.3,0,0.6,0,1v0.2
		c0,0.3,0,0.7,0,1c0,0.1-0.1,0.3-0.1,0.4c-0.1,0.1-0.2,0.1-0.4,0.1h-8.4c-0.4,0-0.8,0-1.1-0.1C244.8,493.9,244.7,493.7,244.7,493.5z
		 M256.8,477.9c0-0.6,0.2-1.2,0.7-1.6c0.4-0.4,1-0.7,1.6-0.7c0.6,0,1.2,0.2,1.6,0.7c0.4,0.4,0.7,1,0.7,1.6c0,0.6-0.2,1.2-0.7,1.6
		c-0.4,0.4-1,0.7-1.6,0.7c-0.6,0-1.2-0.2-1.6-0.7C257,479.1,256.8,478.5,256.8,477.9z M257.1,493.5V482c0-0.1,0-0.2,0.1-0.3
		c0.1-0.1,0.3-0.1,0.5-0.2c0.4,0,0.9-0.1,1.3-0.1h0.1c0.4,0,0.8,0,1.2,0.1c0.2,0,0.3,0.1,0.5,0.2c0.1,0.1,0.1,0.2,0.1,0.3v11.5
		c0,0.1,0,0.2-0.1,0.3c-0.2,0.1-0.3,0.1-0.5,0.2c-0.4,0-0.8,0.1-1.2,0.1H259c-0.4,0-0.9,0-1.3-0.1c-0.2,0-0.3-0.1-0.5-0.2
		C257.2,493.7,257.1,493.6,257.1,493.5z M262.7,482.2c0-0.1,0-0.1,0-0.2c0-0.1,0.1-0.2,0.2-0.3c0.6-0.2,1.2-0.2,1.7-0.2h0.2
		c0.5,0,1,0,1.5,0.1c0.2,0,0.4,0.2,0.5,0.4l1.5,4.7c0.4,1.4,0.7,2.8,1,4.2c1-2.9,1.8-5.9,2.4-8.9c0-0.1,0.1-0.2,0.1-0.3
		c0.1-0.1,0.3-0.1,0.4-0.1c0.4,0,0.7-0.1,1.1-0.1h0.2c0.5,0,1,0,1.4,0.1c0.2,0.1,0.3,0.2,0.3,0.3c0,0,0,0.1,0,0.1
		c-0.4,2-1,4-1.6,5.9c-0.6,1.9-1.4,3.8-2.3,5.6c-0.1,0.2-0.3,0.3-0.5,0.4c-0.4,0.1-0.9,0.1-1.3,0.1h-0.6c-0.5,0-0.9,0-1.4-0.1
		c-0.2,0-0.3-0.2-0.4-0.3L262.7,482.2z M275.7,487.9c-0.1-1.7,0.5-3.5,1.6-4.8c1.1-1.2,2.8-1.9,4.4-1.8c1.6-0.1,3.1,0.6,4.2,1.8
		c1,1.3,1.5,3,1.5,4.6c0,0.4,0,0.8-0.1,1.1c-0.1,0.2-0.2,0.3-0.4,0.2h-7.2c0.1,1.3,1.4,2.3,2.7,2.2c0,0,0,0,0,0
		c1.2,0,2.3-0.3,3.4-0.8c0.1-0.1,0.3,0,0.4,0.1c0.2,0.2,0.3,0.5,0.4,0.8l0.2,0.6c0.1,0.3,0.2,0.6,0.2,0.9c0,0.2-0.1,0.3-0.3,0.4
		c-1.5,0.8-3.1,1.2-4.8,1.2c-1.7,0.1-3.4-0.5-4.6-1.7C276.2,491.3,275.6,489.6,275.7,487.9z M279.7,486.6h3.9c0-0.6-0.2-1.2-0.5-1.7
		c-0.3-0.5-0.8-0.7-1.4-0.7c-0.5,0-1,0.2-1.4,0.6C279.9,485.3,279.7,486,279.7,486.6z M289.7,482.1V482c0-0.1,0-0.2,0.1-0.3
		c0-0.1,0.2-0.1,0.4-0.2c0.4-0.1,0.8-0.1,1.2-0.1h0.1c0.3,0,0.7,0,1,0c0.1,0,0.3,0,0.4,0.1c0.1,0.1,0.1,0.2,0.1,0.3
		c0.1,0.7,0.2,1.4,0.2,2.2c0.7-1.9,1.8-2.8,3.1-2.8c0.3,0,0.6,0,0.8,0.1c0.1,0.1,0.3,0.2,0.3,0.3c0.1,0.3,0.1,0.6,0.1,1v0.3
		c0,0.3,0,0.6,0,0.9c0,0.1-0.1,0.3-0.1,0.4c-0.1,0.1-0.2,0.1-0.3,0.1c-1.1,0-2.1,0.6-2.6,1.5c-0.6,1.3-0.9,2.8-0.8,4.3v3.3
		c0,0.2-0.1,0.4-0.3,0.4c-0.5,0.1-1,0.1-1.5,0.1h-0.1c-0.4,0-0.9,0-1.3-0.1c-0.2,0-0.3-0.1-0.5-0.2c-0.1-0.1-0.1-0.2-0.1-0.3v-6.4
		C289.9,485.3,289.8,483.6,289.7,482.1L289.7,482.1z M299.4,482.1V482c0-0.1,0-0.2,0.1-0.3c0.1-0.1,0.3-0.2,0.5-0.2
		c0.4-0.1,0.8-0.1,1.2-0.1h0.1c0.4,0,0.8,0,1.2,0.1c0.1,0,0.3,0.1,0.3,0.3c0.1,0.2,0.1,0.5,0.1,0.7c0.8-0.8,2-1.3,3.2-1.3
		c1.4,0,2.8,0.6,3.7,1.7c1,1.3,1.5,3,1.4,4.6c0.1,1.8-0.4,3.5-1.4,4.9c-0.9,1.2-2.4,1.8-3.9,1.8c-0.9,0-1.8-0.3-2.5-0.8v5.3
		c0,0.2-0.1,0.4-0.3,0.4c-0.5,0.1-1,0.1-1.5,0.1h-0.1c-0.4,0-0.9,0-1.3-0.1c-0.2,0-0.3-0.1-0.5-0.1c-0.1-0.1-0.1-0.2-0.1-0.3v-11.7
		C299.6,485.3,299.5,483.6,299.4,482.1L299.4,482.1z M303.4,490.5c0.5,0.4,1.1,0.7,1.7,0.7c0.7,0,1.3-0.3,1.6-0.9
		c0.4-0.8,0.6-1.8,0.5-2.7c0.1-0.9-0.1-1.9-0.6-2.6c-0.4-0.4-0.9-0.7-1.5-0.6c-0.5,0-1,0.1-1.4,0.5c-0.1,0.1-0.2,0.3-0.3,0.4
		c-0.1,0.3-0.1,0.5-0.1,0.8L303.4,490.5z M312.9,488c-0.1-1.8,0.5-3.6,1.6-5c1.2-1.2,2.9-1.9,4.7-1.8c1.6-0.1,3.2,0.5,4.3,1.6
		c1.1,1.3,1.7,3,1.6,4.6c0.1,1.8-0.5,3.6-1.6,5c-1.2,1.2-2.9,1.9-4.7,1.7c-1.6,0.1-3.2-0.5-4.3-1.6
		C313.3,491.4,312.8,489.7,312.9,488L312.9,488z M316.8,487.9c0,2.2,0.7,3.3,2,3.3c1.5,0,2.2-1.2,2.2-3.5c0-2.2-0.7-3.3-2-3.3
		C317.6,484.3,316.8,485.5,316.8,487.9L316.8,487.9z M326.6,488c-0.1-1.8,0.5-3.6,1.6-5c1.2-1.2,2.9-1.9,4.7-1.8
		c1.6-0.1,3.2,0.5,4.3,1.6c1.1,1.3,1.7,3,1.6,4.6c0.1,1.8-0.5,3.6-1.6,5c-1.2,1.2-2.9,1.9-4.7,1.7c-1.6,0.1-3.2-0.5-4.3-1.6
		C327,491.4,326.5,489.7,326.6,488L326.6,488z M330.5,487.9c0,2.2,0.7,3.3,2,3.3c1.5,0,2.2-1.2,2.2-3.5c0-2.2-0.7-3.3-2-3.3
		C331.3,484.3,330.5,485.5,330.5,487.9L330.5,487.9z M340.9,476.4c0-0.1,0-0.2,0.1-0.2c0.1-0.1,0.3-0.1,0.5-0.1c0.4,0,0.9-0.1,1.3,0
		h0.1c0.5,0,0.9,0,1.2,0c0.2,0,0.4,0,0.5,0.1c0.1,0.1,0.1,0.2,0.2,0.3c0.2,2.3,0.3,4.6,0.2,6.9v7.3c0,0.2,0,0.3,0.1,0.5
		c0.1,0.1,0.3,0.2,0.4,0.1h0.3c0.2,0,0.3,0.1,0.3,0.2c0,0.3,0.1,0.7,0.1,1v0.2c0,0.3,0,0.6-0.1,0.9c0,0.1-0.1,0.3-0.3,0.3
		c-0.6,0.2-1.1,0.3-1.7,0.2c-0.8,0.1-1.6-0.2-2.2-0.7c-0.6-0.7-0.9-1.6-0.8-2.6v-8L340.9,476.4z M353.6,489.2c0-1,0.3-1.9,0.8-2.7
		c0.5-0.8,1.2-1.5,2.1-1.9c-0.6-0.9-1-2.1-1-3.2c0-1.3,0.5-2.5,1.4-3.4c1.1-0.9,2.5-1.4,3.9-1.3c1.3,0,2.6,0.3,3.7,1
		c0.1,0,0.2,0.2,0.2,0.4c0,0.3-0.1,0.6-0.2,0.9l-0.2,0.3c-0.1,0.3-0.3,0.6-0.5,0.8c-0.1,0.1-0.3,0.1-0.5,0c-0.6-0.3-1.4-0.5-2.1-0.5
		c-0.5,0-1,0.1-1.4,0.5c-0.3,0.3-0.5,0.8-0.5,1.3c0.1,1,0.5,1.9,1.2,2.6c0.5,0.6,1.8,1.9,3.7,3.8c0.3-1,0.5-2.1,0.5-3.2
		c0-0.2,0.1-0.4,0.3-0.5c0.4-0.1,0.8-0.1,1.3-0.1h0.3c0.4,0,0.8,0,1.2,0.1c0.2,0.1,0.3,0.3,0.3,0.5c-0.1,1.9-0.5,3.7-1.3,5.4
		c0.6,0.5,1.2,0.9,1.7,1.4c0.1,0.1,0.2,0.2,0.2,0.4c0,0.2-0.1,0.3-0.2,0.5c-0.1,0.3-0.3,0.5-0.5,0.7l-0.3,0.4
		c-0.2,0.3-0.5,0.6-0.9,0.9c-0.2,0.1-0.4,0-0.6-0.1c-0.6-0.4-1.2-0.9-1.9-1.4c-1.4,1.1-3.2,1.7-5,1.6c-0.8,0-1.5-0.1-2.3-0.3
		c-0.7-0.2-1.3-0.5-1.9-1c-0.6-0.4-1-1-1.3-1.6C353.8,490.7,353.6,489.9,353.6,489.2z M357.6,488.8c0,0.7,0.2,1.3,0.7,1.7
		c0.5,0.5,1.2,0.7,1.8,0.7c0.7,0,1.5-0.2,2.1-0.6c-1.6-1.4-2.9-2.7-3.9-3.8C357.8,487.3,357.5,488,357.6,488.8z M376.5,491.2
		l0.3-0.6c0.2-0.4,0.4-0.7,0.7-1c0.2-0.1,0.4-0.1,0.6,0c1,0.8,2.2,1.3,3.5,1.4c0.6,0,1.1-0.1,1.6-0.5c0.4-0.3,0.6-0.8,0.5-1.3
		c0-0.3-0.1-0.5-0.2-0.8c-0.1-0.2-0.3-0.5-0.5-0.6c-0.2-0.2-0.5-0.3-0.7-0.5c-0.2-0.1-0.5-0.3-0.9-0.5l-0.2-0.1
		c-0.8-0.4-1.6-0.9-2.4-1.4c-0.9-0.6-1.5-1.4-1.8-2.4c-0.1-0.4-0.1-0.8-0.1-1.2c0-1,0.3-1.9,0.8-2.7c0.5-0.8,1.2-1.4,2.1-1.8
		c0.9-0.4,1.9-0.6,2.8-0.6c1.6,0,3.2,0.4,4.5,1.3c0.1,0.1,0.2,0.2,0.2,0.3c0,0.1,0,0.3,0,0.4c-0.1,0.2-0.2,0.4-0.3,0.8l-0.2,0.5
		c-0.1,0.3-0.3,0.6-0.6,0.9c-0.1,0.1-0.3,0.1-0.4,0c0,0,0,0,0,0c-0.8-0.6-1.9-1-2.9-1c-0.5,0-1,0.1-1.4,0.4
		c-0.4,0.3-0.5,0.7-0.5,1.2c0,0.4,0.2,0.9,0.5,1.2c0.6,0.5,1.3,0.9,2,1.2c0.5,0.3,1,0.5,1.4,0.7c0.4,0.2,0.8,0.5,1.2,0.8
		c0.4,0.3,0.7,0.6,1,1c0.3,0.4,0.5,0.8,0.6,1.2c0.2,0.5,0.2,1,0.2,1.5c0.1,1.4-0.5,2.8-1.6,3.8c-1.2,1-2.8,1.5-4.4,1.4
		c-1,0-2-0.2-2.9-0.5c-0.9-0.3-1.7-0.7-2.4-1.2c-0.1-0.1-0.2-0.2-0.2-0.3C376.1,491.9,376.3,491.6,376.5,491.2L376.5,491.2z
		 M389.5,487.9c-0.1-1.7,0.5-3.5,1.6-4.8c1.1-1.2,2.8-1.9,4.4-1.8c1.6-0.1,3.1,0.6,4.2,1.8c1,1.3,1.5,3,1.5,4.6c0,0.4,0,0.8-0.1,1.1
		c-0.1,0.2-0.2,0.3-0.4,0.2h-7.2c0.1,1.3,1.4,2.3,2.7,2.2c0,0,0,0,0,0c1.2,0,2.3-0.3,3.4-0.8c0.1-0.1,0.3,0,0.4,0.1
		c0.2,0.2,0.3,0.5,0.4,0.8l0.2,0.6c0.1,0.3,0.2,0.6,0.2,0.9c0,0.2-0.1,0.3-0.3,0.4c-1.5,0.8-3.1,1.2-4.8,1.2
		c-1.7,0.1-3.4-0.5-4.6-1.7C390,491.3,389.4,489.6,389.5,487.9z M393.4,486.6h3.9c0-0.6-0.2-1.2-0.5-1.7c-0.3-0.5-0.8-0.7-1.4-0.7
		c-0.5,0-1,0.2-1.4,0.6C393.7,485.3,393.5,486,393.4,486.6z M402.4,482.9v-0.2c0-0.4,0-0.7,0.1-1c0.1-0.1,0.2-0.2,0.4-0.2h1.4V481
		c-0.1-1.4,0.4-2.9,1.4-3.9c1-0.9,2.2-1.4,3.6-1.3c1,0,1.9,0.1,2.8,0.5c0.2,0.1,0.3,0.2,0.2,0.4c0,0.3-0.1,0.6-0.2,0.9l-0.1,0.4
		c-0.1,0.3-0.2,0.6-0.3,0.9c-0.1,0.1-0.2,0.1-0.4,0.1c-0.5-0.1-1-0.2-1.4-0.2c-0.5-0.1-1,0.2-1.4,0.5c-0.3,0.5-0.4,1.2-0.4,1.8v0.5
		h2.5c0.2,0,0.3,0.1,0.4,0.2c0.1,0.3,0.1,0.7,0.1,1v0.2c0,0.4,0,0.7-0.1,1c-0.1,0.1-0.2,0.2-0.4,0.2h-2.5v9.3c0,0.2-0.1,0.4-0.3,0.4
		c-0.5,0.1-1,0.1-1.5,0.1h-0.1c-0.4,0-0.9,0-1.3-0.1c-0.2,0-0.3-0.1-0.5-0.2c-0.1-0.1-0.1-0.2-0.1-0.3v-9.3h-1.4
		c-0.2,0-0.3-0.1-0.4-0.2C402.4,483.6,402.4,483.3,402.4,482.9z M411.6,482.9v-0.2c0-0.3,0-0.6,0-0.9c0-0.1,0-0.2,0.1-0.3
		c0.1-0.1,0.2-0.1,0.3-0.1h1.4v-2.9c0-0.1,0-0.2,0.1-0.3c0.1-0.1,0.3-0.1,0.5-0.2c0.4,0,0.9-0.1,1.3-0.1h0.1c0.4,0,0.8,0,1.2,0.1
		c0.2,0,0.4,0.1,0.5,0.2c0.1,0.1,0.1,0.2,0.1,0.3v2.9h2.4c0.2,0,0.3,0.1,0.4,0.2c0.1,0.3,0.1,0.7,0.1,1v0.2c0,0.4,0,0.7-0.1,1
		c-0.1,0.1-0.2,0.2-0.4,0.2h-2.4v5.7c-0.1,0.4,0,0.8,0.3,1.2c0.2,0.2,0.5,0.3,0.8,0.3c0.4,0,0.8-0.1,1.2-0.2c0.2-0.1,0.3,0,0.5,0.1
		c0.2,0.3,0.3,0.6,0.4,0.9l0.1,0.2c0.1,0.3,0.2,0.6,0.2,0.9c0,0.2-0.1,0.3-0.3,0.4c-0.9,0.4-1.8,0.6-2.8,0.6c-1.1,0.1-2.2-0.3-3-1
		c-0.8-0.9-1.1-2.1-1-3.2v-5.8H412c-0.1,0-0.2,0-0.3-0.1c-0.1-0.1-0.1-0.2-0.1-0.3C411.6,483.5,411.6,483.2,411.6,482.9L411.6,482.9
		z M421.9,488c-0.1-1.8,0.5-3.6,1.6-5c1.2-1.2,2.9-1.9,4.7-1.8c1.6-0.1,3.2,0.5,4.3,1.6c1.1,1.3,1.7,3,1.6,4.6
		c0.1,1.8-0.5,3.6-1.6,5c-1.2,1.2-2.9,1.9-4.7,1.7c-1.6,0.1-3.2-0.5-4.3-1.6C422.3,491.4,421.8,489.7,421.9,488z M425.8,487.9
		c0,2.2,0.7,3.3,2,3.3c1.5,0,2.2-1.2,2.2-3.5c0-2.2-0.7-3.3-2-3.3C426.6,484.3,425.8,485.5,425.8,487.9z M436.2,482.1V482
		c0-0.1,0-0.2,0.1-0.3c0.1-0.1,0.3-0.2,0.5-0.2c0.4-0.1,0.8-0.1,1.2-0.1h0.1c0.4,0,0.8,0,1.3,0.1c0.2,0,0.3,0.1,0.3,0.3
		c0.1,0.3,0.1,0.5,0.1,0.8c0.4-0.4,0.9-0.8,1.5-1c0.6-0.3,1.2-0.4,1.8-0.4c1.3-0.1,2.5,0.4,3.4,1.3c0.4,0.5,0.7,1,0.9,1.6
		c0.2,0.7,0.3,1.5,0.3,2.2v7.1c0,0.1,0,0.2-0.1,0.3c-0.2,0.1-0.3,0.1-0.5,0.2c-0.4,0-0.8,0.1-1.2,0.1h-0.1c-0.4,0-0.9,0-1.3-0.1
		c-0.2,0-0.3-0.1-0.5-0.2c-0.1-0.1-0.1-0.2-0.1-0.3v-6.2c0-0.5,0-1.1-0.1-1.6c0-0.3-0.1-0.5-0.3-0.7c-0.3-0.3-0.8-0.5-1.3-0.5
		c-0.5,0-0.9,0.1-1.3,0.3c-0.3,0.3-0.5,0.7-0.5,1.1c0,0.4,0,1.1,0,2.3v5.4c0,0.2-0.1,0.4-0.3,0.4c-0.5,0.1-1,0.1-1.5,0.1h-0.1
		c-0.4,0-0.9,0-1.3-0.1c-0.2,0-0.3-0.1-0.5-0.2c-0.1-0.1-0.1-0.2-0.1-0.3v-6.4C436.4,485.3,436.3,483.6,436.2,482.1L436.2,482.1z"/>
	<path class="st2" d="M224.6,402.9V424c0,0.9-0.3,1.7-0.9,2.3c-0.9,0.9-2.6,1.4-5.1,1.4c-2.3,0-4.2-0.5-5.1-1.4
		c-0.6-0.6-1-1.5-0.9-2.3v-19.1c0-3.3-0.8-5-2-6.4c-1.4-1.4-3.3-2.1-5.3-2c-2-0.1-3.9,0.6-5.3,2c-1.2,1.2-2,3.1-2,6.4V424
		c0,0.9-0.3,1.7-0.9,2.3c-0.9,0.9-2.6,1.4-5.1,1.4c-2.3,0-4.2-0.5-5.1-1.4c-0.6-0.6-1-1.4-0.9-2.3v-19.1c0-3.3-0.8-5-2-6.4
		c-1.4-1.3-3.2-2-5.1-2c-2-0.1-3.9,0.6-5.3,2c-1.2,1.2-2,3.1-2,6.4V424c0,0.9-0.3,1.7-0.9,2.3c-0.9,0.9-2.6,1.4-5.1,1.4
		c-2.3,0-4.2-0.5-5.1-1.4c0.5-0.5,0.2-1.2,0.2-2.3v-36c0-0.5,0.2-0.6,0.6-0.6h5.6c3.6,0,4.8,1.4,5,4.2c3.1-3,7.3-4.6,11.6-4.7
		c4-0.1,7.9,1.3,10.9,4c0.7,0.6,1.3,1.3,1.9,2c3.5-3.8,8.4-6,13.5-6c4-0.1,7.9,1.3,10.9,4C222.9,393.6,224.6,396.7,224.6,402.9z"/>
	<path class="st2" d="M265.7,411.1c3.2,0,5-1.4,4.6-4.4c0-10.9-7.6-20.3-20-20.3c-5.4,0-10.6,2.1-14.6,5.9
		c-8.4,8.1-8.7,21.5-0.6,29.9c3.9,3.7,9.6,5.9,16.3,5.9c4.8,0,9.5-0.9,14-2.8c2.6-1.1,3.3-3.6,2.2-6.2c-0.4-1.6-1.9-2.6-3.6-2.5
		c-2,0-6,2.2-11.2,2.2c-4,0-6.7-1.1-8.5-2.6c-1.4-1.4-2.4-3.2-2.8-5.1L265.7,411.1L265.7,411.1z M241.4,404.1c1.1-5,4.8-8.4,9.5-8.4
		c4.8-0.1,8.7,3.6,9,8.4H241.4z"/>
</g>
</svg>
