<?xml version="1.0" encoding="utf-8"?>
<!-- Generator: Adobe Illustrator 25.0.0, SVG Export Plug-In . SVG Version: 6.00 Build 0)  -->
<svg version="1.1" id="Layer_1" xmlns="http://www.w3.org/2000/svg" xmlns:xlink="http://www.w3.org/1999/xlink" x="0px" y="0px"
	 viewBox="0 0 822 822" style="enable-background:new 0 0 822 822;" xml:space="preserve">
<style type="text/css">
	.st0{fill:#E3B6B1;}
	.st1{fill:#7D251C;}
	.st2{fill:#232322;}
	.st3{fill:#ECE329;}
</style>
<g id="Elf_Red">
	<g>
		<path class="st0" d="M507.7,269.9c0,0-12.4-26.1-14.5-40.6s-4.8-33-4.8-33h-42c0,0-1.4,8.9-2.1,19.9s-9,0.7-9,8.9s9.6,6.2,9.6,6.2
			v6.9c0,0,5.5,2.1,13.1,0c7.6-2.1,8.3,5.5,1.4,8.3s-13.1,2.8-13.1,2.8s0.7,4.1,6.9,6.9s14.5,3.4,14.5,3.4l20.7,22.7L507.7,269.9z"
			/>
		<path class="st1" d="M509.1,266.6c0,0,38.1,36.1,45.8,63.8c4,14.5-62.5,50.6-62.5,50.6s30.1,19.2,26.3,33.9s-27.7,22.8-36.2,21.3
			c-8.5-1.5-9-0.5-7.5-7.4s16.5-22.3,16.5-22.3s-39.5-9.1-36.7-33c1.9-16,37.8-35.1,37.8-35.1s-34.9-51.4-20.3-70.6
			S499.1,255.8,509.1,266.6z"/>
		<path class="st1" d="M446.4,196.3c0,0,14.5-11.3,42.9-14.2s58.7,7.6,58.7,7.6s-25.5,3.8-39.7,17c-14.2,13.2-12.3,33.1-12.3,33.1
			s-23.6-17-36.9-25.5S446.4,196.3,446.4,196.3z"/>
		<path class="st2" d="M465,397.3l22.1,9.1c0,0-7.2,9.5-19.4,13.8c-12.2,4.2-27.7-10.6-27.7-10.6s19.2,46.2,52.1,29.8
			s37.2-18.1,29.3-34c-8-16-33-28.2-33-28.2l4.8,19.1L465,397.3z"/>
		<path class="st0" d="M428.8,332.5c0,0-10.6-2.1-18.6,3.2c-8,5.3-8,5.3-8,5.3s11.7,16,31.9,7.4S428.8,332.5,428.8,332.5z"/>
		<path class="st3" d="M499.3,281.9c0,0,3.7,14-8.3,29.8s-43,35.1-50.5,35.1s-21.1-0.9-18-12.2c3.1-11.3,25.7-19.6,38.5-30.1
			c12.8-10.5,10.5-23.3,21.1-29.3C492.6,269.2,496.3,273.7,499.3,281.9z"/>
		<ellipse class="st2" cx="452.9" cy="223.8" rx="3.7" ry="3.7"/>
		<ellipse class="st3" cx="546.1" cy="188.7" rx="8.2" ry="8.2"/>
		<ellipse class="st3" cx="441.5" cy="410.3" rx="8.2" ry="8.2"/>
	</g>
</g>
</svg>
