<?xml version="1.0" encoding="utf-8"?>
<!-- Generator: Adobe Illustrator 25.0.0, SVG Export Plug-In . SVG Version: 6.00 Build 0)  -->
<svg version="1.1" id="Layer_1" xmlns="http://www.w3.org/2000/svg" xmlns:xlink="http://www.w3.org/1999/xlink" x="0px" y="0px"
	 viewBox="0 0 226.8 226.8" style="enable-background:new 0 0 226.8 226.8;" xml:space="preserve">
<style type="text/css">
	.st0{fill:#BDA9A6;}
	.st1{fill:#DDEBF4;}
	.st2{fill:#232322;}
	.st3{font-family:'AcierBATText-Gris';}
	.st4{font-size:29.15px;}
	.st5{letter-spacing:-1;}
</style>
<polygon class="st0" points="119.6,224.9 128.5,47.5 144,47.5 131.9,226.6 "/>
<polygon class="st1" points="62.7,57.4 223,65.8 219.8,135.5 58.5,124.8 3.8,84.6 "/>
<text transform="matrix(0.9982 5.965482e-02 -5.965482e-02 0.9982 47.1508 98.6808)" class="st2 st3 st4">No</text>
<text transform="matrix(0.9982 5.965482e-02 -5.965482e-02 0.9982 87.429 101.0879)" class="st2 st3 st4">r</text>
<text transform="matrix(0.9982 5.965482e-02 -5.965482e-02 0.9982 102.7317 102.0024)" class="st2 st3 st4">th </text>
<text transform="matrix(0.9982 5.965482e-02 -5.965482e-02 0.9982 141.6423 104.3278)" class="st2 st3 st4 st5">p</text>
<text transform="matrix(0.9982 5.965482e-02 -5.965482e-02 0.9982 156.1963 105.1976)" class="st2 st3 st4">ole</text>
</svg>
