<?xml version="1.0" encoding="utf-8"?>
<!-- Generator: Adobe Illustrator 25.0.0, SVG Export Plug-In . SVG Version: 6.00 Build 0)  -->
<svg version="1.1" id="Layer_1" xmlns="http://www.w3.org/2000/svg" xmlns:xlink="http://www.w3.org/1999/xlink" x="0px" y="0px"
	 viewBox="0 0 822 822" style="enable-background:new 0 0 822 822;" xml:space="preserve">
<style type="text/css">
	.st0{fill:#EBC39B;}
	.st1{fill:#7D251C;}
	.st2{fill:#C83E34;}
	.st3{opacity:0.47;fill:#FFFFFF;enable-background:new    ;}
	.st4{fill:#B76462;}
	.st5{fill:#FFFFFF;}
	.st6{fill:#232322;}
	.st7{opacity:0.39;fill:#7D251C;enable-background:new    ;}
</style>
<g id="Reindeer_01_copy">
	<path class="st0" d="M180.1,355.4l115.4,110.3l95.4-98c0,0,0.6-16.2-26.2-32.8c-26.8-16.6-38-10.3-62.1-12.2
		c-24.1-1.9-85-34.3-85-34.3L180.1,355.4z"/>
	<g>
		<path class="st1" d="M316.9,478.9c21.7,17.6,28.5,68.1,35,96.4c9.2,40.1,34.7,78.9,34,120.7c-0.2,10.3-2.6,38.5,9.7,40.1
			c13.6,1.8,15.5-15.3,18-24.6c2-7.2,6.2-13.9,7.6-21.7c2.3-12.9-5.8-24.4-10.1-37.3c-12.3-36.5-22.9-76.3-25.8-114.7
			c-2.2-29.9-3.2-67.1-19-93.4c-8.4-14-12.9-16.2-26.9-9.3c-13.2,6.5-25.2,18.2-27.6,33.3c-1,5.9-0.7,21.6,6.9,18.9
			C316.1,487,313.8,487.6,316.9,478.9z"/>
		<path class="st2" d="M328.1,460.9c21.7,17.6,28.5,68.1,35,96.4c9.2,40.1,34.7,78.9,34,120.7c-0.2,10.3-2.6,38.5,9.7,40.1
			c13.6,1.8,15.5-15.3,18-24.6c2-7.2,6.2-13.9,7.6-21.7c2.3-12.9-5.8-24.4-10.1-37.3c-12.3-36.5-22.9-76.3-25.8-114.7
			c-2.2-29.9-3.2-67.1-19-93.4c-8.4-14-12.9-16.2-26.9-9.3c-13.2,6.5-25.2,18.2-27.6,33.3c-1,5.9-0.7,21.6,6.9,18.9
			C327.3,469,325,469.6,328.1,460.9z"/>
	</g>
	<g>
		<path class="st1" d="M574.6,369.1c1.3-17,45.3,16.8,49,27.9c8,23.9,4.7,56.9,3,81.6c-1,14,5.9,37.9,2.5,50.4
			c-1.6,5.8-10.9,12.9-14.3,17.7c-7.3,10-12.7,20.7-17.7,31.8c-11,24.5-15.6,52.5-20.1,78.7c-1.8,10.7-4.9,25.7-1.8,36
			c1.8,6.2,11.2,11.8,11.9,16.1c0.7,4.2-13,25.2-17.4,26.6c-7.7,2.5-27.7-13.7-29.9-20.6c-2.7-8.4,4.2-20.6,6.4-28.2
			c5-16.9,7-33.6,7.3-51.2c0.5-29.9,8.4-61.4,6.1-91.3c-2.3-29.9-23.7-57.6-33.7-85.1c-8.7-23.7-4.6-56.3,18.6-71.9
			c7.8-5.2,21.1-11.2,29.5-15.5C578.8,369.9,576,368.4,574.6,369.1z"/>
		<path class="st2" d="M560.7,357.4c1.3-17,45.3,16.8,49,27.9c8,23.9,4.7,56.9,3,81.6c-1,14,5.9,37.9,2.5,50.4
			c-1.6,5.8-10.9,12.9-14.3,17.7c-7.3,10-12.7,20.7-17.7,31.8c-11,24.5-15.6,52.5-20.1,78.7c-1.8,10.7-4.9,25.7-1.8,36
			c1.8,6.2,11.2,11.8,11.9,16.1c0.7,4.2-13,25.2-17.4,26.6c-7.7,2.5-27.7-13.7-29.9-20.6c-2.7-8.4,4.2-20.6,6.4-28.2
			c5-16.9,7-33.6,7.3-51.2c0.5-29.9,8.4-61.4,6.1-91.3c-2.3-29.9-23.7-57.6-33.7-85.1c-8.7-23.7-4.6-56.3,18.6-71.9
			c7.8-5.2,21.1-11.2,29.5-15.5C564.8,358.2,562,356.8,560.7,357.4z"/>
	</g>
	<path class="st0" d="M623,394.9c-0.8-18.8,29.7-42.3,48-38.5c-3.7,2.6-8.2,5.6-9.8,10.2c8-2.2,16.2-3,21.8,4.1
		c-2.7,1.9-6.9,2.6-10.5,3.7c5.5,2.6,9.4,9.2,13.7,13.8c-6.4-0.3-10.9-2.5-17.2,0.5c1.5,2.6,1.9,6.4,3,9.2
		c-6.3,2.1-14.7-3.4-22.2-2.9c-9.5,0.7-17.7,4.3-25.2,9.6C623.2,400.4,620.4,394.4,623,394.9z"/>
	<path class="st1" d="M298.6,474.8c0,0,9.3,21.1,29,27.7c19.6,6.6,42.6,1.6,42.6,1.6L298.6,474.8z"/>
	<path class="st1" d="M554.9,484.5c0,0,20.7-0.8,39.1-17c18.4-16.1,30.6-36,30.6-36L554.9,484.5z"/>
	<path class="st3" d="M243.5,312.7c1.2,0.2,1.8,1.1,2.8,1.8c5.8,3.8,12.8,5.8,19.4,7.4c8.6,2.1,17.5,3,26.3,4.4
		c2.9,0.4,6.1,1.3,9,0.9c-3.4,0.5-6.7,2-10.3,2.5c3.5,1.3,7.6,1.2,11.4,1.4c10.1,0.5,19.9-0.4,30,1.3c8.7,1.5,18,3.8,26,7.4
		c2.6,1.1,7.1,3.1,7.5,6.4c-3.9-1-7.6-2.5-11.7-3.1c-6.1-0.8-12.5-1.2-18.6-1.1c2.1,0.8,4.3,1.3,6.3,2.3
		c-10.1-3.2-21.8-2.8-32.2-1.7c-17.8,2-34.9-1.7-51.8-7c6.5,2.1,13,6.8,15.4,13.6c-6-5.1-12.8-8.4-20.4-11c-6.3-2.2-12.7-5-19.3-5.8
		c6.2-1.5,12.5-1.9,18.9-1.8c3.1,0,6.3,0.9,9.2,1c-4.1-1.4-5.9-4.7-8.7-7.7c-2.2-2.3-5.3-4.1-6.8-7
		C245.2,315.3,245.1,314,243.5,312.7z"/>
	<path class="st2" d="M290.9,376c14.9-17.1,34.3-38.5,62.6-39.2c28.3-0.7,57.2,11.5,85.8,8.4s74.1-11.7,110.3-8.4
		c36.2,3.3,70,6.3,84.9,27.5s17.8,31.7,2.1,52.9c-15.7,21.2-29.8,32.6-42.4,46.5c-12.6,13.9-32.9,22.6-54.7,22.2
		s-102.6,15.6-129.7,17.8c-31.1,2.5-83.6,5.2-109.6-24.4C274.2,449.7,265.1,405.5,290.9,376z"/>
	<g>
		<g>
			<path class="st4" d="M26.2,220.7c0,0,11,33.6,42.2,36.6s61.2-14.5,77.8-14.5s55.2,16,103.4,3c48.2-13,62.2-38.1,89.8-57.1
				c27.6-19.1,39.6-18.6,41.1-29.6c1.5-11-21.1,6-35.1,8.5s-9.5-44.1-22.6-43.1s2.5,25.6-3.5,44.6s-23.6,38.1-48.7,50.6
				c-25.1,12.5-53.2,17-78.8,14s-25.6,3-35.6-8c-10-11-24.1-63.2-42.7-75.7c-18.6-12.5-23.6-3.5-21.6,4.5c2,8,14.6,4.5,25.6,25.6
				s22.1,35.6,19.1,44.6c-3,9-19.6,13.5-42.2,15c-22.6,1.5-25.1-17-24.6-30.1c0.5-13,2-28.1-10.5-28.6s-1.5,24.1-10,29.6
				c-8.5,5.5-19.1-26.6-31.1-21.6C6.1,194.1,21.1,212.1,26.2,220.7z"/>
			<path class="st1" d="M58.7,229.6c0,0,11,33.6,42.1,36.6s61.2-14.5,77.8-14.5s55.2,16,103.4,3c48.2-13,62.2-38.1,89.8-57.1
				s39.6-18.6,41.1-29.6c1.5-11-21.1,6-35.1,8.5c-14,2.5-9.5-44.1-22.6-43.1s2.5,25.6-3.5,44.6c-6,19.1-23.6,38.1-48.7,50.6
				c-25.1,12.5-53.2,17-78.8,14c-25.6-3-25.6,3-35.6-8c-10-11-24.1-63.2-42.6-75.7c-18.6-12.5-23.6-3.5-21.6,4.5
				c2,8,14.6,4.5,25.6,25.6s22.1,35.6,19.1,44.6c-3,9-19.6,13.5-42.2,15s-25.1-17-24.6-30.1c0.5-13,2-28.1-10.5-28.6
				c-12.5-0.5-1.5,24.1-10,29.6c-8.5,5.5-19.1-26.6-31.1-21.6S53.6,221.1,58.7,229.6z"/>
			<g>
				<path class="st2" d="M190.1,249.3c0,0-14.9-5.4-29.2,9.4c-14.4,14.8-22.9,23.4-39.6,36s-32.4,19.8-36.9,21.6
					c-4.5,1.8-19.8,5.8-21.1,14.4s2.7,11.7,2.7,11.7s0,6.3,0.9,9c0.9,2.7,4.9,3.1,4.9,3.1s0.9,9.4,13.9,11.2
					c13.1,1.8,31.9-4.5,31.9-4.5s8.6-0.9,26.5,1.8c18,2.7,49.5,2.2,59.8,0s25.2-18,25.2-31.5c0-13.5-0.9-23.8-0.9-33.2
					s20.7-18.9,24.7-33.2c4.1-14.4,4.9-35.5,4.9-35.5s-17.1,2.2-31,10.8c-13.9,8.5-17.1,13.9-17.1,13.9S199.1,249.3,190.1,249.3z"/>
				<path class="st0" d="M69.2,321.7c0,0,6.9-0.8,9,1.2s10.2-6.7,16.5-2.5s-8.8,23.3-6.5,26c2.3,2.7,12.5,2.5,13.3,9.6
					c0.8,7.1-0.6,11-5.6,11s-18.5-2.3-21.3-5.4c-2.7-3.1-1-4.4-3.5-6.2c-2.5-1.9-9.2-8.7-8.8-13.1c0.4-4.4-3.1-8.5-2.1-12.5
					C61.3,325.8,69.2,321.7,69.2,321.7z"/>
				<path class="st0" d="M158.7,301.3c0,0,15,8.1,24,5.2c9-2.9,10.2-15.2,10.2-18.5s-7.9-16.2-20.2-11.9S158.7,301.3,158.7,301.3z"
					/>
				<path class="st5" d="M162.9,294.2c0,0,9.4-10.2,15-10.2c5.6,0,9.6,8.7,9.6,8.7s-3.8,5-8.5,5.2c-4.8,0.2-7.9-2.3-10.6-2.5
					C165.6,295.2,162.9,294.2,162.9,294.2z"/>
				<ellipse class="st6" cx="178.1" cy="291.1" rx="5.4" ry="5.4"/>
				<path class="st0" d="M223.7,283.4c0,0,12.3-7.7,19.4-13.1c7.1-5.4,9.6-32.5,9.6-32.5s-12.9-0.2-24.6,7.5
					c-11.7,7.7-17.3,20.4-17.3,20.4l-0.2,7.7l12.7-5.8l-7.5,12.5l12.3-5L223.7,283.4z"/>
			</g>
			<path class="st5" d="M79.7,357.2c0,0,9.1,0.7,26.9-6.2s27.3-13.1,27.3-13.1s-14.9,15.3-24.8,20.7
				C99.4,364.1,79.7,357.2,79.7,357.2z"/>
		</g>
		<path class="st6" d="M86.6,326.3c-4.1,1.2-8.8,3.5-11.9,6.5c-2.3,2.1-5,6.1,0.3,6.2C78.5,339.1,90,329.5,86.6,326.3z"/>
	</g>
	<path class="st7" d="M302.1,376.5c0.8-2.3,4.9-5,6.6-6.5c4.3-3.7,8.8-7.5,13.5-10.6c9.8-6.4,21.1-9.3,32.7-10.1
		c13.4-0.9,26.6,2.8,39.7,5c11.3,1.9,22.5,2.5,33.9,2.2c-11.4,3-22.7,5.8-34.6,5.9c-8.2,0-16.9,0.8-25.1,0c-1.4-0.1-2.6-0.3-3.9-0.8
		c2.2,3.4,5.2,6.6,5.6,10.9c-5,0.8-10.8-4-15.5-5.3c-3.1-0.8-6.2-0.9-9.4-0.7c-0.4,2.4,1.4,5.1,1.6,7.6c-2.4-3-9-2.9-12.3-3
		c-5.3-0.2-10.7-0.3-15.9,0.5c-5.9,0.9-12,2.3-17.6,4.3c0.1,0.7,0.1,0.4,0.4,0.9C302.3,376.7,302.5,376.4,302.1,376.5z"/>
	<path class="st7" d="M168.7,356.7c0.8-0.4,2.5-0.5,3.6-0.8c7.5-1.7,15.3-4.4,21.9-8.4c7.1-4.3,13.2-10.1,16.7-17.7
		c1.1-2.4,1.8-5.1,3.3-7.2c0.4,9-3.2,16.9-9.7,23.1c3.8-0.1,9.1-3.8,12-6.1c0.3,2.9-4.2,6.7-6.2,8.3c-3.2,2.6-7.1,4.2-10.8,5.8
		c-5.9,2.6-11.6,4.7-18,5.5c-3.6,0.4-6.8,1.4-10.1-0.2C170.3,358.5,169.4,357.8,168.7,356.7z"/>
	<path class="st7" d="M524.5,340.5c14,0.1,27.9,2,41,7.5c6,2.5,11.4,6.2,16,10.9c0.9,0.9,2,1.7,1.9,3c-2.3,0.2-4.6-0.1-6.8-0.4
		c-10.4-1.2-20.9-1.5-31.3-1.4c-6.3,0.1-12.8,0.1-18.7,2.6c-1.2,0.5-2,1.1-3.3,1.3c7-0.7,10.3,6,13.8,10.7
		c-11-0.7-22.1,0.6-32.7,3.6c-8.6,2.4-16.7,7.2-23.6,12.8c-2.1,1.7-5,3.9-5.7,6.6c0-5.9,0.2-11.9-0.3-17.8
		c-0.3-4.3-1.7-9.1,0.1-13.2c0.7-1.6,2-2.7,2.7-4.3c12-5.6,22.4-13.8,34.8-18.6c5-1.9,11.5-5.8,17-5.4
		C527.7,339,525.5,340.2,524.5,340.5z"/>
</g>
</svg>
