<?xml version="1.0" encoding="utf-8"?>
<!-- Generator: Adobe Illustrator 25.0.0, SVG Export Plug-In . SVG Version: 6.00 Build 0)  -->
<svg version="1.1" id="Layer_1" xmlns="http://www.w3.org/2000/svg" xmlns:xlink="http://www.w3.org/1999/xlink" x="0px" y="0px"
	 viewBox="0 0 822 822" style="enable-background:new 0 0 822 822;" xml:space="preserve">
<style type="text/css">
	.st0{fill:#EBC39B;}
	.st1{fill:#7D251C;}
	.st2{fill:#C83E34;}
	.st3{fill:#B76462;}
	.st4{fill:#FFFFFF;}
	.st5{fill:#232322;}
	.st6{opacity:0.47;fill:#FFFFFF;enable-background:new    ;}
	.st7{opacity:0.39;fill:#7D251C;enable-background:new    ;}
</style>
<g id="Reindeer_01">
	<path class="st0" d="M176.2,388.4l141,74.8l65.2-120.3c0,0-3.8-15.7-34.1-24.4s-39.4,0.4-63.1,5.1c-23.7,4.7-91.1-9.9-91.1-9.9
		L176.2,388.4z"/>
	<g>
		<path class="st1" d="M300.9,466.6c-3.5,27.7-42.8,60.2-63.4,80.6c-29.2,29-48.7,71.2-84.6,92.6c-8.8,5.3-34.1,18.1-28.9,29.4
			c5.6,12.5,21.2,5.1,30.4,2.3c7.1-2.2,15.1-2,22.4-5c12.1-4.9,17.7-17.8,26.4-28.3c24.5-29.7,52.7-59.7,83.8-82.5
			c24.2-17.7,55.3-38.2,69.3-65.5c7.5-14.6,6.9-19.5-6.3-27.8c-12.5-7.8-28.7-11.8-42.8-5.9c-5.5,2.3-18.7,10.8-12.4,15.8
			C293.6,470.2,291.8,468.5,300.9,466.6z"/>
		<path class="st2" d="M322,466.6c-3.5,27.7-42.8,60.2-63.4,80.6c-29.2,29-48.7,71.2-84.6,92.6c-8.8,5.3-34.1,18.1-28.9,29.4
			c5.6,12.5,21.2,5.1,30.4,2.3c7.1-2.2,15.1-2,22.4-5c12.1-4.9,17.7-17.8,26.4-28.3c24.5-29.7,52.7-59.7,83.8-82.5
			c24.2-17.7,55.3-38.2,69.3-65.5c7.5-14.6,6.9-19.5-6.3-27.8c-12.5-7.8-28.7-11.8-42.8-5.9c-5.5,2.3-18.7,10.8-12.4,15.8
			C314.8,470.2,313,468.5,322,466.6z"/>
	</g>
	<g>
		<path class="st1" d="M543.5,419.1c-12-12.1,42.4-23.1,53.2-18.6c23.3,9.6,46,33.8,63.6,51.3c9.9,9.9,32.5,20.4,39.7,31.2
			c3.4,5,2.6,16.7,3.9,22.4c2.8,12.1,7.3,23.1,12.4,34.2c11.3,24.4,29.4,46.2,46.2,66.8c6.8,8.4,16.2,20.5,26,25
			c5.9,2.7,16.3-0.8,20,1.6c3.6,2.3,10.4,26.4,8.7,30.5c-3.1,7.5-28.5,11.9-35.2,9c-8-3.5-12.8-16.7-17.1-23.3
			c-9.5-14.8-20.7-27.4-33.8-39.2c-22.2-20-40.8-46.6-64.8-64.5c-24-17.9-59-20-86.3-30.4c-23.6-9-45.5-33.5-42-61.2
			c1.2-9.3,5.4-23.3,7.7-32.4C546.9,416.4,543.9,417.6,543.5,419.1z"/>
		<path class="st2" d="M525.5,421.9c-12-12.1,42.4-23.1,53.2-18.6c23.3,9.6,46,33.8,63.6,51.3c9.9,9.9,32.5,20.4,39.7,31.2
			c3.4,5,2.6,16.7,3.9,22.4c2.8,12.1,7.3,23.1,12.4,34.2c11.3,24.4,29.4,46.2,46.2,66.8c6.8,8.4,16.2,20.5,26,25
			c5.9,2.7,16.3-0.8,20,1.6c3.6,2.3,10.4,26.4,8.7,30.5c-3.1,7.5-28.5,11.9-35.2,9c-8-3.5-12.8-16.7-17.1-23.3
			c-9.5-14.8-20.7-27.4-33.8-39.2c-22.2-20-40.8-46.6-64.8-64.5c-24-17.9-59-20-86.3-30.4c-23.6-9-45.5-33.5-42-61.2
			c1.2-9.3,5.4-23.3,7.7-32.4C528.9,419.3,526,420.4,525.5,421.9z"/>
	</g>
	<path class="st0" d="M619.9,381.4c7.3-17.4,44.8-25.6,59.8-14.5c-4.4,0.8-9.8,1.5-13.2,5.1c8.2,1.4,16,4.2,18,13
		c-3.3,0.5-7.4-0.5-11-1.1c3.9,4.7,4.6,12.3,6.6,18.3c-5.6-3-8.8-6.9-15.8-6.9c0.2,3-1,6.6-1.2,9.7c-6.6-0.8-11.8-9.3-18.9-12
		c-8.9-3.4-17.9-3.7-26.9-2C617.7,386.4,617.6,379.8,619.9,381.4z"/>
	<path class="st1" d="M298.6,474.8c0,0,9.3,21.1,29,27.7c19.6,6.6,42.6,1.6,42.6,1.6L298.6,474.8z"/>
	<path class="st1" d="M554.9,484.5c0,0,20.7-0.8,39.1-17c18.4-16.1,30.6-36,30.6-36L554.9,484.5z"/>
	<path class="st2" d="M290.9,376c14.9-17.1,34.3-38.5,62.6-39.2c28.3-0.7,57.2,11.5,85.8,8.4s74.1-11.7,110.3-8.4
		c36.2,3.3,70,6.3,84.9,27.5s17.8,31.7,2.1,52.9c-15.7,21.2-29.8,32.6-42.4,46.5c-12.6,13.9-32.9,22.6-54.7,22.2
		s-102.6,15.6-129.7,17.8c-31.1,2.5-83.6,5.2-109.6-24.4C274.2,449.7,265.1,405.5,290.9,376z"/>
	<g>
		<g>
			<path class="st3" d="M17.2,257.7c0,0,11,33.6,42.2,36.6s61.2-14.5,77.8-14.5s55.2,16,103.4,3s62.2-38.1,89.8-57.1
				c27.6-19.1,39.6-18.6,41.1-29.6c1.5-11-21.1,6-35.1,8.5s-9.5-44.1-22.6-43.1s2.5,25.6-3.5,44.6s-23.6,38.1-48.7,50.6
				c-25.1,12.5-53.2,17-78.8,14c-25.6-3-25.6,3-35.6-8c-10-11-24.1-63.2-42.7-75.7c-18.6-12.5-23.6-3.5-21.6,4.5
				c2,8,14.6,4.5,25.6,25.6s22.1,35.6,19.1,44.6c-3,9-19.6,13.5-42.2,15s-25.1-17-24.6-30.1c0.5-13,2-28.1-10.5-28.6
				s-1.5,24.1-10,29.6c-8.5,5.5-19.1-26.6-31.1-21.6C-2.9,231.1,12.1,249.1,17.2,257.7z"/>
			<path class="st1" d="M49.7,266.6c0,0,11,33.6,42.1,36.6s61.2-14.5,77.8-14.5s55.2,16,103.4,3s62.2-38.1,89.8-57.1
				s39.6-18.6,41.1-29.6c1.5-11-21.1,6-35.1,8.5c-14,2.5-9.5-44.1-22.6-43.1s2.5,25.6-3.5,44.6c-6,19.1-23.6,38.1-48.7,50.6
				c-25.1,12.5-53.2,17-78.8,14c-25.6-3-25.6,3-35.6-8c-10-11-24.1-63.2-42.6-75.7c-18.6-12.5-23.6-3.5-21.6,4.5
				c2,8,14.6,4.5,25.6,25.6s22.1,35.6,19.1,44.6c-3,9-19.6,13.5-42.2,15s-25.1-17-24.6-30.1c0.5-13,2-28.1-10.5-28.6
				c-12.5-0.5-1.5,24.1-10,29.6c-8.5,5.5-19.1-26.6-31.1-21.6S44.6,258.1,49.7,266.6z"/>
			<g>
				<path class="st2" d="M181.1,286.3c0,0-14.9-5.4-29.2,9.4s-22.9,23.4-39.6,36s-32.4,19.8-36.9,21.6c-4.5,1.8-19.8,5.8-21.1,14.4
					s2.7,11.7,2.7,11.7s0,6.3,0.9,9c0.9,2.7,5,3.1,5,3.1s0.9,9.4,13.9,11.2c13.1,1.8,31.9-4.5,31.9-4.5s8.6-0.9,26.5,1.8
					c18,2.7,49.5,2.2,59.8,0s25.2-18,25.2-31.5c0-13.5-0.9-23.8-0.9-33.2s20.7-18.9,24.7-33.2s4.9-35.5,4.9-35.5s-17.1,2.2-31,10.8
					c-13.9,8.5-17.1,13.9-17.1,13.9S190.1,286.3,181.1,286.3z"/>
				<path class="st0" d="M60.2,358.7c0,0,6.9-0.8,9,1.2s10.2-6.7,16.5-2.5s-8.8,23.3-6.5,26c2.3,2.7,12.5,2.5,13.3,9.6
					c0.8,7.1-0.6,11-5.6,11s-18.5-2.3-21.3-5.4c-2.7-3.1-1-4.4-3.5-6.2c-2.5-1.9-9.2-8.7-8.8-13.1c0.4-4.4-3.1-8.5-2.1-12.5
					C52.3,362.8,60.2,358.7,60.2,358.7z"/>
				<path class="st0" d="M149.7,338.3c0,0,15,8.1,24,5.2c9-2.9,10.2-15.2,10.2-18.5s-7.9-16.2-20.2-11.9S149.7,338.3,149.7,338.3z"
					/>
				<path class="st4" d="M153.9,331.2c0,0,9.4-10.2,15-10.2c5.6,0,9.6,8.7,9.6,8.7s-3.8,5-8.5,5.2c-4.8,0.2-7.9-2.3-10.6-2.5
					C156.6,332.2,153.9,331.2,153.9,331.2z"/>
				<ellipse class="st5" cx="169.1" cy="328.1" rx="5.4" ry="5.4"/>
				<path class="st0" d="M214.7,320.4c0,0,12.3-7.7,19.4-13.1c7.1-5.4,9.6-32.5,9.6-32.5s-12.9-0.2-24.6,7.5s-17.3,20.4-17.3,20.4
					l-0.2,7.7l12.7-5.8l-7.5,12.5l12.3-5L214.7,320.4z"/>
			</g>
			<path class="st4" d="M70.7,394.2c0,0,9.1,0.7,26.9-6.2s27.3-13.1,27.3-13.1s-14.9,15.3-24.8,20.7
				C90.4,401.1,70.7,394.2,70.7,394.2z"/>
		</g>
		<path class="st5" d="M77.6,363.3c-4.1,1.2-8.8,3.5-11.9,6.5c-2.3,2.1-5,6.1,0.3,6.2C69.5,376.1,81,366.5,77.6,363.3z"/>
	</g>
	<path class="st6" d="M225.6,330.1c1.2-0.1,2,0.6,3.2,0.9c6.6,2,13.9,2.1,20.7,1.9c8.9-0.3,17.7-1.8,26.5-2.9
		c2.9-0.4,6.2-0.4,8.9-1.6c-3.2,1.4-5.9,3.8-9.2,5.1c3.8,0.3,7.7-0.9,11.3-1.7c9.9-2.3,19-5.8,29.2-6.9c8.8-1,18.3-1.2,27.1,0
		c2.8,0.4,7.7,1,9,4.1c-4,0.1-8-0.4-12.1,0.2c-6.1,0.9-12.3,2.2-18.2,4c2.2,0.2,4.5,0,6.7,0.5c-10.6-0.3-21.7,3.2-31.4,7.1
		c-16.6,6.7-34,7.8-51.7,7.3c6.9,0.2,14.4,3,18.5,8.9c-7.2-3.3-14.6-4.6-22.6-5.1c-6.7-0.4-13.6-1.4-20.2-0.4
		c5.5-3.1,11.5-5.2,17.7-6.9c2.9-0.8,6.3-0.9,9.1-1.6c-4.4-0.2-6.9-2.9-10.5-5.1c-2.7-1.6-6.2-2.6-8.4-4.9
		C227.9,332.2,227.5,331,225.6,330.1z"/>
	<path class="st7" d="M302.1,376.5c0.8-2.3,4.9-5,6.6-6.5c4.3-3.7,8.8-7.5,13.5-10.6c9.8-6.4,21.1-9.3,32.7-10.1
		c13.4-0.9,26.6,2.8,39.7,5c11.3,1.9,22.5,2.5,33.9,2.2c-11.4,3-22.7,5.8-34.6,5.9c-8.2,0-16.9,0.8-25.1,0c-1.4-0.1-2.6-0.3-3.9-0.8
		c2.2,3.4,5.2,6.6,5.6,10.9c-5,0.8-10.8-4-15.5-5.3c-3.1-0.8-6.2-0.9-9.4-0.7c-0.4,2.4,1.4,5.1,1.6,7.6c-2.4-3-9-2.9-12.3-3
		c-5.3-0.2-10.7-0.3-15.9,0.5c-5.9,0.9-12,2.3-17.6,4.3c0.1,0.7,0.1,0.4,0.4,0.9C302.3,376.7,302.5,376.4,302.1,376.5z"/>
	<path class="st7" d="M159.7,393.7c0.8-0.4,2.5-0.5,3.6-0.8c7.5-1.7,15.3-4.4,21.9-8.4c7.1-4.3,13.2-10.1,16.7-17.7
		c1.1-2.4,1.8-5.1,3.3-7.2c0.4,9-3.2,16.9-9.7,23.1c3.8-0.1,9.1-3.8,12-6.1c0.3,2.9-4.2,6.7-6.2,8.3c-3.2,2.6-7.1,4.2-10.8,5.8
		c-5.9,2.6-11.6,4.7-18,5.5c-3.6,0.4-6.8,1.4-10.1-0.2C161.3,395.5,160.4,394.8,159.7,393.7z"/>
	<path class="st7" d="M524.5,340.5c14,0.1,27.9,2,41,7.5c6,2.5,11.4,6.2,16,10.9c0.9,0.9,2,1.7,1.9,3c-2.3,0.2-4.6-0.1-6.8-0.4
		c-10.4-1.2-20.9-1.5-31.3-1.4c-6.3,0.1-12.8,0.1-18.7,2.6c-1.2,0.5-2,1.1-3.3,1.3c7-0.7,10.3,6,13.8,10.7
		c-11-0.7-22.1,0.6-32.7,3.6c-8.6,2.4-16.7,7.2-23.6,12.8c-2.1,1.7-5,3.9-5.7,6.6c0-5.9,0.2-11.9-0.3-17.8
		c-0.3-4.3-1.7-9.1,0.1-13.2c0.7-1.6,2-2.7,2.7-4.3c12-5.6,22.4-13.8,34.8-18.6c5-1.9,11.5-5.8,17-5.4
		C527.7,339,525.5,340.2,524.5,340.5z"/>
</g>
</svg>
