<?xml version="1.0" encoding="utf-8"?>
<!-- Generator: Adobe Illustrator 25.0.0, SVG Export Plug-In . SVG Version: 6.00 Build 0)  -->
<svg version="1.1" id="Layer_1" xmlns="http://www.w3.org/2000/svg" xmlns:xlink="http://www.w3.org/1999/xlink" x="0px" y="0px"
	 viewBox="0 0 841.9 115.4" style="enable-background:new 0 0 841.9 115.4;" xml:space="preserve">
<style type="text/css">
	.st0{fill:#FFFFFF;}
	.st1{fill:#EAEDEF;}
</style>
<g>
	<path class="st0" d="M-1.3,17.9c11.3,0,29.4,0.2,49.2,4.3c7.5,1.6,26-4.3,33.6-1.1s44.4,5.4,53.1,5.4s69.3-9.8,75.8-6.5
		s37.9,8.7,45.5,6.5c7.6-2.2,19.5-4.3,26-4.3s8.7,3.2,26,4.3s68.2-5.4,81.2-5.4c13,0,32.5,4.3,41.1,4.3s29.2-2.2,40.1-2.2
		s45.5,0,53.1,1.1s66.1,1.1,66.1,1.1s16.2-6.5,29.2-6.5s29.2,1.1,41.2,4.3c11.9,3.2,37.9,3.2,37.9,3.2s19.5-6.5,26-7.6
		s39,9.8,61.7,9.8s43.3-10.8,52-10.8s13,0,13,0v97.5H-8.4L-1.3,17.9z"/>
	<path class="st1" d="M846.9,23.2c0,0-4.3,0-13,0S804.7,34,781.9,34s-55.2-10.8-61.7-9.8s-26,7.6-26,7.6s-26,0-37.9-3.2
		c-11.9-3.2-28.2-4.3-41.2-4.3s-29.2,6.5-29.2,6.5s-58.5,0-66.1-1.1s-42.2-1.1-53.1-1.1c-10.8,0-31.4,2.2-40.1,2.2
		s-28.2-4.3-41.1-4.3c-13,0-63.9,6.5-81.2,5.4c-17.3-1.1-19.5-4.3-26-4.3s-18.4,2.2-26,4.3c-7.6,2.2-39-3.2-45.5-6.5
		c-6.5-3.2-67.1,6.5-75.8,6.5S85.6,29.7,78,26.4c-7.6-3.2-26,0-33.6,1.1s-49.8,4.3-49.8,4.3l-1.4,19c7.1-0.8,14.2-2.9,21.2-4.5
		c20.8-4.8,42-8.8,62.9-13.3c-3.1,0.9-6.4,3-8,5.3c9.2,0.5,18.6-1.3,27.9-1c9.1,0.3,17.2,1.9,26.1,2.9c18.2,2,42.9,1,60.3-5
		c5.6-1.9,13.4-5.7,19-1.6c-3,3.5-9.6,3.2-12.2,6.8c9.2,0.8,18.9-1.8,28.2-2c10.9-0.3,21.6,1,32.4,1.1c9.4,0.1,18.7,0.8,27.2-2.1
		c3.6-1.2,6.3-1.9,10.3-2.1c12.9-0.6,25.8,1.6,38.8,1.1c14.8-0.6,29.6-2.2,44.4-3.7c8.2-0.9,16.8-2.6,25-2
		c-11.4,6.8-25.9,6.8-37.1,14.1c9.4,0.2,19.4-3.9,28.9-4.9c8.4-0.9,17.3-1.8,25.8-1.3c3.8,0.2,6.9,1.5,10.5,2.1
		c8.8,1.5,18.7-0.3,27.6,0.1c-0.6,2.6-3.4,3.6-3.3,6.2c18.2,1.1,40,0.2,57.7-4.4c12.5-3.3,23.4-5.1,36.7-5.8
		c11.5-0.6,23.1-0.3,34.6-0.3c3.7,0,7.3,0,11,0c6.8,0,18.8-2.1,25.1-0.1c-2.8,2.5-6.9,3.5-8.8,6.9c12.5,0.4,23.3-3.6,35.3-5.8
		c11.1-2,23-0.8,34.1-0.2c10,0.5,21.1,3.2,30.9,1.2c6.1-1.2,12.9-7.5,19.4-6.2c-0.6,0.9-0.4,1.7-1.4,2.6c19.8-0.6,38.7,4,58.2,6.2
		c7.3,0.8,17.4,2.6,24.8,1c4.7-1,9.6-2.9,14.4-4.5c-6.3,2.5-12.3,6.6-18.1,9.7c-8.4,4.4-18.6,7.9-26,13.7
		c22.8-1.2,43.2-13.8,65-19.3c1.4-0.4,3.2-0.6,5.1-0.9L846.9,23.2L846.9,23.2z"/>
</g>
</svg>
