<?xml version="1.0" encoding="utf-8"?>
<!-- Generator: Adobe Illustrator 25.0.0, SVG Export Plug-In . SVG Version: 6.00 Build 0)  -->
<svg version="1.1" id="Layer_1" xmlns="http://www.w3.org/2000/svg" xmlns:xlink="http://www.w3.org/1999/xlink" x="0px" y="0px"
	 viewBox="0 0 841.9 132.4" style="enable-background:new 0 0 841.9 132.4;" xml:space="preserve">
<style type="text/css">
	.st0{fill:#DDEBF4;}
	.st1{opacity:0.3;fill:#FFFFFF;enable-background:new    ;}
</style>
<g>
	<path class="st0" d="M-9.5,24.9c0,0,67.4-7.9,71.1-7.9c3.7,0,31.1,4.7,33.7,4.7c2.6,0,24.2,0,34.2,0c10,0,28.4-2.1,35.3-2.1
		s57.9-5.3,62.1-5.3c4.2,0,14.8,0.5,23.7,1.6s32.1,0,35.8,0s20.5-0.5,22.6-0.5s45.3,0.5,49,0.5s14.8-4.7,28.4-4.7s30,2.6,30,2.6
		s17.4,0,22.6,0s21.1-3.7,25.8-3.7s19.5,0,21.1,0s19.5,0,22.6,0s62.7,5.3,66.4,5.3s30.5-4.2,35.3-4.2s16.3-1.6,20.5-0.5
		c4.2,1,17.4,1.6,21.1,2.6c3.7,1,26.3-1,28.4-1s26.3-1.6,30-0.5s17.4,3.2,22.1,3.2s23.2-2.6,25.8-2.6c2.6,0,12.9-0.5,17.1,1
		s24.3,2.9,28.8,5.7c5.7,3.5,13.5,6.2,21.9,6.2s23.2-2.4,23.2-2.4l1.2,109.6H-9L-9.5,24.9z"/>
	<path class="st1" d="M13.1,31.3C30,31.1,48,20.9,64.8,25c8.6,2.1,16.5,5.1,25.6,5.9c11.6,1,22.7-0.5,34.2-1.4
		c28.9-2.1,57.8-3.6,86.7-6.6c8.2-0.9,16.9-2.7,25.2-2.2c-7.6-0.6-15.7,1.8-22.9,3.2c-25.6,5-51.3,9.6-77,14.3
		C111.1,43,84.3,50.4,58.2,52c7.8-3.6,16-6.1,23.8-9.6c2.9-1.3,7.2-2.4,8.2-5.7c-4.8-2.6-10.6-2.2-15.9-3c-5.1-0.8-6.9-2.6-11.4-4.9
		c-6.5-3.3-14.6-0.1-21.5,0.8c-7.1,1-14.3,1.1-21.5,1.2C16.5,30.8,13.2,30.2,13.1,31.3z"/>
	<path class="st1" d="M271.8,27.6c25.7-4.1,50.3-1.9,76.1-2.5c12.3-0.3,24.3-4.1,36.5-5.5c16.3-1.9,31,1.3,47.4,1.2
		c11-0.1,21.6-2.2,32.5-3.2c13.3-1.2,26.6-1,40-1c12.5,0,24.9,0.5,37.3,1.7c9,0.9,22.9-0.7,30.8,3.6c-29.4-0.4-59.2-1.1-88.5,0.8
		c-23.1,1.5-46.1,3.9-69.1,6.5c-10.6,1.2-23.4,4.9-34.1,3.9c4.7-3.7,11.7-3.7,16.1-7.6c-3-4.5-18.7,0.7-22.8,1.7
		c-15.9,3.9-30.4,6.7-46.9,6.9C323,23.3,271.6,25.7,271.8,27.6z"/>
	<path class="st1" d="M786.8,19c-18.9-4.4-79.9-1.8-135.5,2.6c-15.9,1.2-34.2,0-49.6,4.2c-3.1,0.9-5.8,2.7-8.9,3.7
		c-8.2,2.7-17.9,2-26.5,2.4c-18.1,0.9-37.8-2.2-55.6,1c-3.4,0.6-10.6,1.8-12.2,4.2c7.6,2.3,17.2,0.6,25.1,0.6
		c11.3,0,22.5-0.2,33.8,0.5c19.2,1.1,38.4,1.8,57.6,0.9c17.7-0.8,35.2-2.2,52.9-2.4c13.8-0.2,27.2-3.9,40.9-5.4
		c9.2-1,18.5,0.4,27.5-1.7c10.3-2.4,18-4,28.5-4.7c7.1-0.5,9.5-0.8,16.5-1c-9.1,0.9-15.6,1.5-21.5,9.3c11.3,2.4,22.3-2.3,34.3-2.3
		c7.7,0,15.5,1,22.8-1.3"/>
</g>
</svg>
