<?xml version="1.0" encoding="utf-8"?>
<!-- Generator: Adobe Illustrator 25.0.0, SVG Export Plug-In . SVG Version: 6.00 Build 0)  -->
<svg version="1.1" id="Layer_1" xmlns="http://www.w3.org/2000/svg" xmlns:xlink="http://www.w3.org/1999/xlink" x="0px" y="0px"
	 viewBox="0 0 841.9 109.3" style="enable-background:new 0 0 841.9 109.3;" xml:space="preserve">
<style type="text/css">
	.st0{fill:#FFFFFF;}
	.st1{fill:#EAEDEF;}
</style>
<g>
	<path class="st0" d="M-8.9,7.7c0,0,34.7,12,56.3,8.4c7.6-1.2,26-4.3,33.6-1.1s44.4,5.4,53.1,5.4c8.7,0,69.3-9.8,75.8-6.5
		s37.9,8.7,45.5,6.5c7.6-2.2,19.5-4.3,26-4.3s8.7,3.2,26,4.3s68.2-5.4,81.2-5.4c13,0,32.5,4.3,41.1,4.3s29.2-2.2,40.1-2.2
		s45.5,0,53.1,1.1c7.6,1.1,66.1,1.1,66.1,1.1s16.2-6.5,29.2-6.5s29.2,1.1,41.2,4.3s37.9,3.2,37.9,3.2s19.5-6.5,26-7.6
		s39,9.8,61.7,9.8s43.3-10.8,52-10.8s13,0,13,0v97.5H-8.9V7.7z"/>
	<path class="st1" d="M15.4,26c17.3,0.6,34.6-5.2,51.9-5.3c13.7-0.1,27,2.8,40.7,4c20.6,1.8,40.6,0.7,60.9-2.5
		c10.8-1.7,22.1-2.5,33.1-2.5c13.4,0.1,24.3,6.7,37.2,8.6c10.4,1.6,20.2-0.7,30.5-2.1c17.2-2.3,33.3,3.4,50.5,3.5
		c20.6,0.2,43.5,0.5,63.7-4.3c-25.5-0.5-52.6,6.1-77.5,10.5c-23,4-47.1,11.3-70.4,12.1c5.8-2.5,43.4-7.7,42.8-17.8
		c-10.9-0.6-21.4,1.6-32.2,2.6c-8.4,0.8-19.9,3.7-28.4,2.1c-6.1-1.1-15.2-5.4-20.6-8.7c-3.9-2.4-6.9-5.1-12.1-5
		c-6.4,0.1-13.5,3.5-20.1,4.4c-13.3,1.7-26.4,4.6-39.7,6.6c-16.2,2.5-34.8,9.1-51.5,7.3c3.2-4.5,22.5-4.2,20.3-11
		c-2.2-7.1-23.7-6.6-29-6.9c-11.3-0.6-22.2,3-33.5,3.8c-5.6,0.4-13.7-0.4-18.2,1.5C14.5,26.6,14.7,25.9,15.4,26z"/>
	<path class="st1" d="M462.1,29.2c10.1,0,20.1-2.1,30.2-2.1c17.3-0.1,34.6,0.5,51.8,0.6c17.8,0.1,35.5,0.5,53.2,1
		c7.8,0.2,17.6,0.4,25-2.2c3.4-1.2,5.4-3.2,9.2-3.6c9.7-1,19.2,0.8,28.7,2.2c12.8,2,25.7,1.4,38.6,1.9c6.8,0.3,13.9,0.6,20.5-1.3
		c6-1.8,11.8-3.9,18.2-4.4c10.1-0.8,19.5,1.4,29.4,2.4c10.2,1,20.2,3,30.5,3.3c8,0.2,18.6,1.6,26.4-1.1c-22.2,0.2-44.2,3.3-66.5,3.2
		c-38.2-0.2-75,10.8-112.7,14.2c7.2-3.1,15.7-4.7,22.2-9c-5.3-4.3-19.1-0.9-25.9-3.1c0.1-0.3,0.1-0.6,0.2-0.9
		c-18.5-3.3-35.9,5.3-54.2,6.2c-29.6,1.4-59-5.1-88.8-2.8c-11.5,0.9-19.8-2.2-31.3-4c-2.1-0.3-5.7-0.9-6.8-0.2
		c-4.9-1.4-9.8-2.9-14.6-4.5"/>
</g>
</svg>
