<?xml version="1.0" encoding="utf-8"?>
<!-- Generator: Adobe Illustrator 24.3.0, SVG Export Plug-In . SVG Version: 6.00 Build 0)  -->
<svg version="1.1" id="Layer_1" xmlns="http://www.w3.org/2000/svg" xmlns:xlink="http://www.w3.org/1999/xlink" x="0px" y="0px"
	 viewBox="0 0 841.89 595.28" style="enable-background:new 0 0 841.89 595.28;" xml:space="preserve">
<style type="text/css">
	.st0{fill:#DDEBF4;}
	.st1{opacity:0.3;fill:#FFFFFF;}
</style>
<g>
	<path class="st0" d="M-7.39,529.97c0,0,56.35-5.79,63.73-6.32s75.32,7.9,77.42,7.9s41.61,0,51.09,0c9.48,0,36.87-5.27,45.29-5.27
		c8.43,0,42.13-1.58,42.13-1.58l93.22,5.27c0,0,22.12-3.16,32.13-3.16s24.75-2.63,30.02-2.63c5.27,0,21.59-1.05,30.02,0
		c8.43,1.05,35.81,0,37.39-0.53c1.58-0.53,20.01-2.11,22.12-1.58c2.11,0.53,13.69,0.53,15.27,1.58c1.58,1.05,10.01,2.11,12.64,2.11
		c2.63,0,36.87-6.85,42.66-6.85c5.79,0,24.75,1.58,30.55,2.63c5.79,1.05,38.45,0.53,38.45,0.53s20.01-3.16,23.17-3.16
		s24.23,1.58,24.23,1.58l21.59,0.53c0,0,69,6.32,72.68,6.32s7.37-3.16,14.22-3.16c6.85,0,10.53,0,14.22,0s24.23-2.63,24.23-2.63
		v73.74H-10.02L-7.39,529.97z"/>
	<path class="st1" d="M182.21,540.5c12.23-0.64,24.66-5.21,36.96-6.7c12.9-1.57,25.94-2.91,38.95-3.33
		c20.57-0.66,41.65-0.82,62.02,2c22.77,3.15,46.99,5.56,69.94,3.57c21.87-1.89,43.33-5.31,65.37-5.55c14.98-0.16,29.23-1,44.15-2.12
		c9.81-0.73,24.5-3.98,33.95-1.16c-26.76,2.1-53.69,4.26-80.48,6.73c-19.78,1.82-39.57,4.61-59.32,6.82
		c-10.13,1.13-20.52,3.21-30.75,2.9c3.67,0.24,7.25-1.1,10.83-1.71c-13.32-3.25-28.48-0.38-42.34-1.29
		c-19-1.25-37.58-6.53-56.62-6.48c-18.83,0.05-38.02-1.21-56.71,1.04c-12.19,1.47-25.76,0.76-36.87,5.82
		C182.81,541.02,184.36,541.07,182.21,540.5z"/>
	<path class="st1" d="M7.88,538.92c18.04,0.98,37.26-4.9,55.29-6.33c10.09-0.8,20.55,1.92,30.47,3.2c18.72,2.4,37.56,0.74,56.16,2.2
		c-13.27,3.37-27.43,2.81-41.03,4.14c-10,0.98-19.54,3.19-29.33,5.5c-8.83,2.08-19.68,6.16-28.76,5.43
		c3.79-1.69,30.05-7.38,29.37-13.08c-0.58-4.87-17.03-3.15-20.28-3.16c-13.59-0.03-27.63,0.96-41.1,2.11
		C14.8,539.25,10.75,540.5,7.88,538.92z"/>
	<path class="st1" d="M526.14,537.87c19.94,0.34,39.27-9,59.24-9.96c15.55-0.75,30.1,2.74,45.45,3.52
		c26.29,1.34,51.27-7.97,77.33-5.09c9.63,1.06,19.06,2.49,28.75,3.64c7.95,0.95,16.98,0.62,24.49,2.65
		c-24.34-0.32-48.98-2.31-73.32-1.06c-17.22,0.89-34.53,4.37-51.64,6.5c-4.78,0.59-9.57,1.72-14.37,1.3
		c2.65-6.69-11.1-5.27-15.87-6.24c-11.47-2.32-21.97-3.36-33.85-2.64c-11.34,0.69-25.9,2.04-36.83,5.26
		C531.16,537.04,527.35,540.21,526.14,537.87z"/>
</g>
</svg>
